<svg width="368" height="220" viewBox="0 0 368 220" fill="none" xmlns="http://www.w3.org/2000/svg">
<path d="M56.56 192.08H77.33C78.3909 192.08 79.4083 192.501 80.1584 193.252C80.9086 194.002 81.33 195.019 81.33 196.08V202C81.33 203.061 80.9086 204.078 80.1584 204.828C79.4083 205.579 78.3909 206 77.33 206H39.08C38.0192 206 37.0017 205.579 36.2516 204.828C35.5014 204.078 35.08 203.061 35.08 202V122.75C35.08 121.689 35.5014 120.672 36.2516 119.922C37.0017 119.171 38.0192 118.75 39.08 118.75H48.6C49.6609 118.75 50.6783 119.171 51.4284 119.922C52.1786 120.672 52.6 121.689 52.6 122.75V188.1C52.6052 189.151 53.0235 190.157 53.7644 190.901C54.5054 191.646 55.5096 192.07 56.56 192.08Z" fill="#C29663"/>
<path d="M81 152.49C83.539 147.349 87.4675 143.022 92.34 140C97.1633 137.084 102.704 135.571 108.34 135.63C113.046 135.523 117.704 136.596 121.89 138.75C123.517 139.61 125.063 140.614 126.51 141.75C126.925 142.097 127.43 142.32 127.966 142.391C128.503 142.462 129.048 142.378 129.539 142.151C130.03 141.923 130.446 141.561 130.738 141.105C131.03 140.65 131.187 140.121 131.19 139.58C131.19 139.204 131.264 138.833 131.408 138.486C131.551 138.139 131.762 137.823 132.028 137.558C132.293 137.292 132.609 137.081 132.956 136.938C133.303 136.794 133.674 136.72 134.05 136.72H144.82C145.881 136.72 146.898 137.141 147.648 137.892C148.399 138.642 148.82 139.659 148.82 140.72V202C148.82 203.061 148.399 204.078 147.648 204.828C146.898 205.579 145.881 206 144.82 206H134.1C133.725 206.001 133.353 205.929 133.006 205.786C132.659 205.643 132.344 205.434 132.078 205.169C131.813 204.904 131.602 204.589 131.458 204.243C131.314 203.897 131.24 203.525 131.24 203.15V203C131.245 202.462 131.097 201.934 130.813 201.477C130.529 201.02 130.121 200.654 129.636 200.421C129.151 200.188 128.61 200.098 128.076 200.162C127.542 200.225 127.037 200.44 126.62 200.78C125.163 201.958 123.596 202.993 121.94 203.87C117.72 206.063 113.015 207.16 108.26 207.06C102.632 207.115 97.1065 205.553 92.34 202.56C87.468 199.463 83.5443 195.082 81 189.9C78.1203 184.058 76.6835 177.612 76.81 171.1C76.6854 164.65 78.1229 158.265 81 152.49ZM128.77 160.42C127.221 157.5 124.882 155.074 122.02 153.42C119.254 151.811 116.11 150.969 112.91 150.98C109.695 150.95 106.533 151.801 103.768 153.443C101.004 155.084 98.7424 157.453 97.23 160.29C95.454 163.607 94.5717 167.329 94.67 171.09C94.579 174.883 95.453 178.637 97.21 182C98.7698 184.959 101.103 187.441 103.96 189.18C106.649 190.821 109.74 191.686 112.89 191.68C116.09 191.691 119.234 190.849 122 189.24C124.862 187.586 127.201 185.16 128.75 182.24C130.389 178.83 131.24 175.094 131.24 171.31C131.24 167.526 130.389 163.79 128.75 160.38L128.77 160.42Z" fill="#C29663"/>
<path d="M193.11 204.44L177.92 185.37C177.4 184.737 176.698 184.279 175.909 184.058C175.12 183.837 174.282 183.863 173.509 184.134C172.736 184.404 172.064 184.906 171.585 185.57C171.106 186.235 170.842 187.031 170.83 187.85V202C170.83 203.061 170.409 204.078 169.658 204.828C168.908 205.579 167.891 206 166.83 206H157.3C156.239 206 155.222 205.579 154.472 204.828C153.721 204.078 153.3 203.061 153.3 202V117.5C153.3 116.439 153.721 115.422 154.472 114.672C155.222 113.921 156.239 113.5 157.3 113.5H166.83C167.891 113.5 168.908 113.921 169.658 114.672C170.409 115.422 170.83 116.439 170.83 117.5V154.67C170.844 155.49 171.109 156.286 171.59 156.95C172.071 157.614 172.745 158.114 173.52 158.382C174.295 158.651 175.133 158.675 175.922 158.451C176.711 158.227 177.412 157.766 177.93 157.13L192.86 138.26C193.234 137.79 193.708 137.411 194.248 137.149C194.788 136.888 195.38 136.752 195.98 136.75H207.98C208.743 136.756 209.489 136.98 210.128 137.396C210.768 137.812 211.276 138.402 211.591 139.097C211.907 139.792 212.017 140.562 211.908 141.318C211.8 142.073 211.478 142.782 210.98 143.36L188.63 168.83C187.991 169.559 187.639 170.496 187.639 171.465C187.639 172.434 187.991 173.371 188.63 174.1L211.1 199.32C211.601 199.898 211.926 200.608 212.036 201.365C212.146 202.122 212.037 202.894 211.721 203.591C211.405 204.288 210.896 204.88 210.254 205.296C209.613 205.712 208.865 205.936 208.1 205.94H196.23C195.631 205.94 195.039 205.805 194.499 205.545C193.959 205.285 193.484 204.908 193.11 204.44Z" fill="#C29663"/>
<path d="M269.16 176.6H227C226.371 176.601 225.751 176.751 225.191 177.037C224.631 177.323 224.146 177.737 223.776 178.246C223.405 178.754 223.16 179.343 223.06 179.964C222.96 180.585 223.008 181.221 223.2 181.82C224.018 184.318 225.46 186.565 227.39 188.35C230.486 191.185 234.563 192.705 238.76 192.59C244.553 192.59 248.857 190.37 251.67 185.93C252.026 185.394 252.511 184.957 253.081 184.658C253.651 184.359 254.287 184.208 254.93 184.22H265.55C266.238 184.22 266.915 184.398 267.515 184.737C268.114 185.075 268.617 185.562 268.973 186.152C269.329 186.741 269.526 187.412 269.547 188.1C269.568 188.789 269.41 189.47 269.09 190.08C266.876 194.233 263.768 197.843 259.99 200.65C254.33 204.943 247.377 207.087 239.13 207.08C232.873 207.181 226.697 205.65 221.21 202.64C215.965 199.738 211.672 195.379 208.85 190.09C205.803 184.325 204.275 177.879 204.41 171.36C204.268 164.807 205.77 158.323 208.78 152.5C211.552 147.234 215.799 142.891 221 140C226.53 137.149 232.659 135.651 238.881 135.631C245.103 135.61 251.241 137.066 256.79 139.88C261.913 142.633 266.121 146.821 268.9 151.93C271.846 157.436 273.33 163.606 273.21 169.85C273.21 170.92 273.21 171.95 273.12 172.93C273.038 173.926 272.585 174.855 271.853 175.534C271.12 176.213 270.159 176.593 269.16 176.6ZM250.4 164.85C251.026 164.86 251.646 164.72 252.207 164.442C252.768 164.165 253.256 163.757 253.628 163.254C254 162.75 254.248 162.165 254.349 161.547C254.45 160.929 254.402 160.296 254.21 159.7C253.398 157.497 252.018 155.548 250.21 154.05C246.974 151.332 242.855 149.891 238.63 150C234.622 149.881 230.719 151.289 227.71 153.94C225.977 155.462 224.61 157.356 223.71 159.48C223.474 160.082 223.389 160.732 223.463 161.374C223.538 162.016 223.769 162.63 224.137 163.161C224.504 163.693 224.997 164.126 225.571 164.422C226.145 164.718 226.784 164.869 227.43 164.86L250.4 164.85Z" fill="#C29663"/>
<path d="M20.92 41.11C24.6516 34.4684 30.1384 28.9816 36.78 25.25C43.6692 21.4136 51.4455 19.4549 59.33 19.57C69.07 19.57 77.6033 22.0667 84.93 27.06C90.5446 30.8626 95.0537 36.0824 98 42.19C98.2645 42.7959 98.3746 43.458 98.3206 44.1169C98.2666 44.7758 98.0501 45.4111 97.6905 45.9659C97.3309 46.5207 96.8394 46.9777 96.2599 47.296C95.6804 47.6143 95.0311 47.784 94.37 47.79H82.37C81.6898 47.7769 81.0251 47.5853 80.4424 47.2342C79.8597 46.8832 79.3795 46.3851 79.05 45.79C77.2807 42.7306 74.7394 40.1893 71.68 38.42C67.8679 36.2977 63.5623 35.2213 59.2 35.3C54.4418 35.2173 49.7531 36.4492 45.65 38.86C41.6726 41.2622 38.4662 44.7531 36.41 48.92C34.1098 53.6607 32.975 58.8822 33.1 64.15C32.9872 69.4006 34.1216 74.603 36.41 79.33C38.453 83.5215 41.6611 87.0352 45.65 89.45C49.7541 91.8573 54.4428 93.0857 59.2 93C63.5945 93.0879 67.9309 91.9856 71.75 89.81C74.8033 88.0065 77.3414 85.4479 79.12 82.38C79.4511 81.7841 79.933 81.2856 80.5175 80.9346C81.1019 80.5836 81.7683 80.3923 82.45 80.38H94.45C95.1112 80.3894 95.7597 80.5626 96.3375 80.8841C96.9153 81.2055 97.4045 81.6652 97.7611 82.222C98.1178 82.7788 98.3308 83.4153 98.3813 84.0746C98.4317 84.7339 98.3179 85.3954 98.05 86C95.1391 92.1381 90.6318 97.381 85 101.18C77.72 106.14 69.1667 108.62 59.34 108.62C51.4546 108.732 43.6782 106.77 36.79 102.93C30.1547 99.2182 24.6653 93.7565 20.92 87.14C16.9783 80.1241 14.9731 72.1862 15.11 64.14C14.9831 56.0854 16.9874 48.1404 20.92 41.11Z" fill="#4E271D"/>
<path d="M110.57 104.56C105.278 101.644 100.92 97.2894 98 92C94.886 86.2528 93.3182 79.7953 93.45 73.26C93.3168 66.7116 94.9323 60.2461 98.13 54.53C101.142 49.2358 105.581 44.8942 110.94 42C116.531 39.0829 122.744 37.5595 129.05 37.5595C135.356 37.5595 141.569 39.0829 147.16 42C152.532 44.8924 156.981 49.238 160 54.54C163.198 60.2561 164.813 66.7216 164.68 73.27C164.798 79.8371 163.125 86.3123 159.84 92C156.742 97.2986 152.244 101.641 146.84 104.55C141.211 107.545 134.916 109.068 128.54 108.98C122.27 109.076 116.08 107.554 110.57 104.56ZM137.48 91.44C140.337 89.8333 142.659 87.4238 144.16 84.51C145.92 81.0313 146.78 77.1668 146.66 73.27C146.66 66.69 144.933 61.6333 141.48 58.1C139.853 56.3808 137.884 55.0205 135.701 54.1061C133.517 53.1918 131.167 52.7435 128.8 52.79C126.452 52.7393 124.12 53.1862 121.957 54.1014C119.793 55.0166 117.849 56.3793 116.25 58.1C112.877 61.64 111.19 66.6967 111.19 73.27C111.19 79.8433 112.833 84.9033 116.12 88.45C117.69 90.1734 119.613 91.5388 121.758 92.4533C123.903 93.3678 126.219 93.81 128.55 93.75C131.676 93.7605 134.751 92.9649 137.48 91.44Z" fill="#4E271D"/>
<path d="M193.66 53H189.51C188.449 53 187.432 53.4214 186.682 54.1716C185.931 54.9217 185.51 55.9391 185.51 57V103.87C185.51 104.931 185.089 105.948 184.338 106.698C183.588 107.449 182.571 107.87 181.51 107.87H171.73C170.669 107.87 169.652 107.449 168.902 106.698C168.151 105.948 167.73 104.931 167.73 103.87V57C167.739 56.483 167.646 55.9694 167.457 55.4883C167.267 55.0073 166.985 54.5685 166.625 54.1969C166.266 53.8253 165.836 53.5283 165.362 53.3229C164.887 53.1175 164.377 53.0078 163.86 53C163.343 53.0013 162.831 52.9006 162.353 52.7037C161.875 52.5068 161.441 52.2175 161.075 51.8525C160.709 51.4874 160.418 51.0537 160.22 50.5763C160.022 50.0988 159.92 49.5869 159.92 49.07V42.66C159.92 41.5991 160.341 40.5817 161.092 39.8316C161.842 39.0814 162.859 38.66 163.92 38.66H167.81V35.16C167.81 26.6733 170.223 20.43 175.05 16.43C179.17 13.0233 185.067 11.16 192.74 10.84C193.279 10.817 193.818 10.9035 194.323 11.0943C194.828 11.285 195.289 11.576 195.679 11.9497C196.069 12.3235 196.379 12.7722 196.59 13.2689C196.802 13.7657 196.91 14.3001 196.91 14.84V21.75C196.921 22.7099 196.58 23.6405 195.952 24.3664C195.324 25.0922 194.452 25.563 193.5 25.69C191.517 25.7781 189.61 26.4767 188.04 27.69C186.38 29.18 185.55 31.89 185.55 35.8V38.68H193.68C194.741 38.68 195.758 39.1014 196.508 39.8516C197.259 40.6017 197.68 41.6191 197.68 42.68V49.08C197.659 50.1304 197.226 51.1304 196.473 51.8639C195.721 52.5974 194.711 53.0055 193.66 53Z" fill="#4E271D"/>
<path d="M223.78 53H219.62C218.559 53 217.542 53.4214 216.792 54.1716C216.041 54.9217 215.62 55.9391 215.62 57V103.87C215.62 104.931 215.199 105.948 214.448 106.698C213.698 107.449 212.681 107.87 211.62 107.87H201.84C200.779 107.87 199.762 107.449 199.012 106.698C198.261 105.948 197.84 104.931 197.84 103.87V57C197.859 55.961 197.465 54.9569 196.746 54.2073C196.026 53.4577 195.039 53.0236 194 53C193.481 53.0093 192.966 52.9158 192.484 52.7249C192.001 52.5341 191.562 52.2496 191.19 51.888C190.818 51.5264 190.521 51.0947 190.317 50.618C190.113 50.1412 190.005 49.6287 190 49.11V42.66C190 41.5991 190.421 40.5817 191.172 39.8316C191.922 39.0814 192.939 38.66 194 38.66H197.89V35.16C197.89 26.6733 200.303 20.43 205.13 16.43C209.25 13.0233 215.147 11.16 222.82 10.84C223.359 10.817 223.898 10.9035 224.403 11.0943C224.908 11.285 225.369 11.576 225.759 11.9497C226.149 12.3235 226.459 12.7722 226.67 13.2689C226.882 13.7657 226.99 14.3001 226.99 14.84V21.75C227.001 22.7099 226.66 23.6405 226.032 24.3664C225.404 25.0922 224.532 25.563 223.58 25.69C221.597 25.7762 219.689 26.4749 218.12 27.69C216.46 29.18 215.62 31.89 215.62 35.8V38.68H223.76C224.821 38.68 225.838 39.1014 226.588 39.8516C227.339 40.6017 227.76 41.6191 227.76 42.68V49.08C227.739 50.1235 227.311 51.1175 226.568 51.8499C225.824 52.5822 224.824 52.995 223.78 53Z" fill="#4E271D"/>
<path d="M287.91 78.52H245.75C245.121 78.5215 244.501 78.6713 243.941 78.9573C243.381 79.2432 242.896 79.6573 242.526 80.1658C242.155 80.6744 241.91 81.2631 241.81 81.8841C241.71 82.5051 241.758 83.141 241.95 83.74C242.771 86.2337 244.213 88.4774 246.14 90.26C249.236 93.0949 253.313 94.6152 257.51 94.5C263.303 94.5 267.607 92.28 270.42 87.84C270.774 87.3054 271.258 86.8692 271.826 86.5719C272.395 86.2747 273.029 86.1261 273.67 86.14H284.3C284.988 86.1402 285.665 86.3181 286.265 86.6566C286.864 86.995 287.367 87.4824 287.723 88.0717C288.079 88.661 288.276 89.3323 288.297 90.0204C288.318 90.7086 288.16 91.3905 287.84 92C285.623 96.1511 282.515 99.7606 278.74 102.57C273.073 106.857 266.12 109 257.88 109C251.637 109.089 245.477 107.559 240 104.56C234.743 101.655 230.437 97.2936 227.6 92C224.554 86.2311 223.026 79.7822 223.16 73.26C223.019 66.7071 224.521 60.2232 227.53 54.4C230.309 49.1353 234.563 44.795 239.77 41.91C245.298 39.0583 251.425 37.5603 257.646 37.5395C263.866 37.5186 270.003 38.9754 275.55 41.79C280.678 44.54 284.89 48.7283 287.67 53.84C290.624 59.3477 292.115 65.5213 292 71.77C292 72.85 292 73.87 291.91 74.85C291.827 75.8527 291.369 76.7872 290.628 77.4674C289.887 78.1476 288.916 78.5234 287.91 78.52ZM269.15 66.78C269.78 66.7961 270.404 66.6611 270.97 66.3863C271.537 66.1114 272.029 65.7048 272.406 65.2004C272.784 64.696 273.034 64.1086 273.137 63.4874C273.241 62.8662 273.194 62.2292 273 61.63C272.179 59.4374 270.8 57.4968 269 56C265.747 53.2895 261.612 51.8663 257.38 52C253.371 51.8838 249.467 53.2877 246.45 55.93C244.722 57.4566 243.355 59.3491 242.45 61.47C242.227 62.0724 242.152 62.7197 242.232 63.3572C242.311 63.9946 242.544 64.6035 242.909 65.1322C243.274 65.6609 243.76 66.094 244.328 66.3947C244.896 66.6955 245.528 66.8551 246.17 66.86L269.15 66.78Z" fill="#4E271D"/>
<path d="M355.13 78.52H313C312.371 78.5215 311.751 78.6713 311.191 78.9573C310.631 79.2432 310.146 79.6573 309.776 80.1658C309.405 80.6744 309.16 81.2631 309.06 81.8841C308.96 82.5051 309.008 83.141 309.2 83.74C310.02 86.2362 311.466 88.4809 313.4 90.26C316.492 93.0961 320.566 94.6169 324.76 94.5C330.547 94.5 334.85 92.28 337.67 87.84C338.027 87.3053 338.512 86.8692 339.082 86.572C339.652 86.2748 340.287 86.1263 340.93 86.14H351.56C352.245 86.147 352.917 86.3299 353.511 86.6712C354.105 87.0124 354.602 87.5005 354.953 88.0887C355.304 88.6769 355.499 89.3455 355.517 90.0304C355.536 90.7153 355.379 91.3935 355.06 92C352.846 96.1533 349.738 99.7635 345.96 102.57C340.3 106.857 333.347 109 325.1 109C318.844 109.099 312.669 107.573 307.18 104.57C301.937 101.656 297.645 97.2917 294.82 92C291.774 86.2311 290.246 79.7822 290.38 73.26C290.237 66.7057 291.744 60.2206 294.76 54.4C297.535 49.1349 301.79 44.7967 307 41.92C312.529 39.0691 318.655 37.5716 324.876 37.5507C331.096 37.5299 337.232 38.9862 342.78 41.8C347.903 44.5534 352.111 48.7411 354.89 53.85C357.835 59.3566 359.319 65.5264 359.2 71.77C359.2 72.85 359.2 73.87 359.11 74.85C359.027 75.8492 358.572 76.7809 357.835 77.4606C357.098 78.1403 356.133 78.5184 355.13 78.52ZM336.37 66.78C336.993 66.7783 337.606 66.6312 338.162 66.3505C338.718 66.0697 339.201 65.6631 339.572 65.163C339.943 64.6629 340.192 64.0831 340.299 63.4697C340.406 62.8564 340.369 62.2264 340.19 61.63C339.377 59.425 337.997 57.4729 336.19 55.97C332.94 53.2602 328.809 51.8369 324.58 51.97C320.571 51.8508 316.665 53.255 313.65 55.9C311.922 57.4273 310.556 59.3196 309.65 61.44C309.427 62.0424 309.352 62.6897 309.432 63.3272C309.512 63.9646 309.744 64.5735 310.109 65.1022C310.474 65.6309 310.96 66.064 311.528 66.3647C312.096 66.6655 312.728 66.8251 313.37 66.83L336.37 66.78Z" fill="#4E271D"/>
</svg>
