<svg width="614" height="124" viewBox="0 0 614 124" fill="none" xmlns="http://www.w3.org/2000/svg">
<path d="M18.22 45.8C21.9801 39.0965 27.5165 33.5601 34.22 29.8C41.163 25.9397 48.9968 23.9674 56.94 24.08C66.76 24.08 75.3633 26.5967 82.75 31.63C88.413 35.4645 92.9603 40.7294 95.93 46.89C96.2065 47.5005 96.3251 48.1707 96.275 48.839C96.2249 49.5073 96.0077 50.1523 95.6434 50.7148C95.279 51.2772 94.7792 51.7391 94.1897 52.0581C93.6003 52.377 92.9402 52.5427 92.27 52.54H80.27C79.5873 52.5204 78.921 52.3262 78.3346 51.9761C77.7482 51.626 77.2612 51.1316 76.92 50.54C75.14 47.4563 72.5813 44.8942 69.5 43.11C65.6219 40.9632 61.2413 39.8896 56.81 40C52.0127 39.9133 47.2849 41.1558 43.15 43.59C39.1373 46.0044 35.9024 49.5205 33.83 53.72C31.529 58.4789 30.3878 63.7152 30.5 69C30.3881 74.288 31.5292 79.5274 33.83 84.29C35.8857 88.5192 39.1229 92.0621 43.15 94.49C47.2849 96.9242 52.0127 98.1667 56.81 98.08C61.2363 98.1801 65.6072 97.0813 69.46 94.9C72.5331 93.0788 75.0877 90.5 76.88 87.41C77.2176 86.813 77.7051 86.3145 78.2944 85.9638C78.8837 85.613 79.5543 85.4221 80.24 85.41H92.3C92.9658 85.4051 93.6222 85.5664 94.2099 85.8793C94.7975 86.1923 95.2977 86.6469 95.6652 87.2021C96.0327 87.7573 96.2557 88.3954 96.3142 89.0586C96.3727 89.7218 96.2647 90.3891 96 91C93.0564 97.208 88.4972 102.51 82.8 106.35C75.4667 111.35 66.8433 113.85 56.93 113.85C48.9854 113.964 41.1503 111.988 34.21 108.12C27.5192 104.374 21.9849 98.8643 18.21 92.19C14.24 85.1152 12.2243 77.1113 12.37 69C12.2433 60.8865 14.2613 52.8834 18.22 45.8Z" fill="#4E271D"/>
<path d="M108.58 109.75C103.249 106.819 98.8614 102.431 95.93 97.1C92.7832 91.3129 91.1979 84.806 91.33 78.22C91.198 71.6147 92.8308 65.0937 96.06 59.33C99.0996 53.9817 103.584 49.5977 109 46.68C114.639 43.7498 120.9 42.2201 127.255 42.2201C133.61 42.2201 139.871 43.7498 145.51 46.68C150.907 49.6093 155.376 53.9915 158.41 59.33C161.636 65.0945 163.266 71.6155 163.13 78.22C163.263 84.8376 161.586 91.3658 158.28 97.1C155.171 102.446 150.639 106.825 145.19 109.75C139.519 112.773 133.175 114.311 126.75 114.22C120.409 114.324 114.149 112.784 108.58 109.75ZM135.71 96.53C138.59 94.9022 140.932 92.4694 142.45 89.53C144.225 86.03 145.102 82.1432 145 78.22C145 71.5933 143.26 66.4933 139.78 62.92C138.137 61.1914 136.152 59.8232 133.952 58.9022C131.752 57.9812 129.385 57.5275 127 57.57C124.634 57.5203 122.283 57.9712 120.103 58.8932C117.923 59.8152 115.963 61.1874 114.35 62.92C110.95 66.4867 109.25 71.5867 109.25 78.22C109.25 84.8533 110.917 89.95 114.25 93.51C115.832 95.2492 117.77 96.6273 119.932 97.5505C122.094 98.4737 124.43 98.9203 126.78 98.86C129.907 98.8612 132.982 98.0589 135.71 96.53Z" fill="#4E271D"/>
<path d="M192.34 57.82H188.15C187.089 57.82 186.072 58.2414 185.322 58.9916C184.571 59.7417 184.15 60.7591 184.15 61.82V109.07C184.15 110.131 183.729 111.148 182.978 111.898C182.228 112.649 181.211 113.07 180.15 113.07H170.29C169.229 113.07 168.212 112.649 167.462 111.898C166.711 111.148 166.29 110.131 166.29 109.07V61.79C166.29 60.7291 165.869 59.7117 165.118 58.9616C164.368 58.2114 163.351 57.79 162.29 57.79C161.229 57.79 160.212 57.3686 159.462 56.6184C158.711 55.8683 158.29 54.8509 158.29 53.79V47.29C158.29 46.2291 158.711 45.2117 159.462 44.4616C160.212 43.7114 161.229 43.29 162.29 43.29H166.21V39.82C166.21 31.26 168.643 24.9667 173.51 20.94C177.663 17.5133 183.607 15.6333 191.34 15.3C191.882 15.2729 192.424 15.3563 192.932 15.5451C193.441 15.7339 193.906 16.0243 194.299 16.3984C194.692 16.7726 195.004 17.2228 195.218 17.7216C195.431 18.2204 195.541 18.7575 195.54 19.3V26.3C195.563 27.2741 195.224 28.222 194.588 28.9608C193.953 29.6995 193.067 30.1766 192.1 30.3C190.107 30.38 188.188 31.0791 186.61 32.3C184.93 33.8067 184.09 36.5333 184.09 40.48V43.38H192.29C193.351 43.38 194.368 43.8014 195.118 44.5516C195.869 45.3017 196.29 46.3191 196.29 47.38V53.83C196.287 54.8805 195.872 55.8879 195.133 56.6345C194.394 57.381 193.39 57.8069 192.34 57.82Z" fill="#4E271D"/>
<path d="M222.7 57.82H218.51C217.449 57.82 216.432 58.2414 215.682 58.9916C214.931 59.7417 214.51 60.7591 214.51 61.82V109.07C214.51 110.131 214.089 111.148 213.338 111.898C212.588 112.649 211.571 113.07 210.51 113.07H200.65C199.589 113.07 198.572 112.649 197.822 111.898C197.071 111.148 196.65 110.131 196.65 109.07V61.79C196.65 60.7291 196.229 59.7117 195.478 58.9616C194.728 58.2114 193.711 57.79 192.65 57.79C191.589 57.79 190.572 57.3686 189.822 56.6184C189.071 55.8683 188.65 54.8509 188.65 53.79V47.29C188.65 46.2291 189.071 45.2117 189.822 44.4616C190.572 43.7114 191.589 43.29 192.65 43.29H196.57V39.82C196.57 31.26 199.003 24.9667 203.87 20.94C208.017 17.5133 213.96 15.6333 221.7 15.3C222.242 15.2729 222.784 15.3563 223.292 15.5451C223.801 15.7339 224.266 16.0243 224.659 16.3984C225.052 16.7726 225.364 17.2228 225.578 17.7216C225.791 18.2204 225.901 18.7575 225.9 19.3V26.3C225.923 27.2741 225.584 28.222 224.948 28.9608C224.313 29.6995 223.427 30.1766 222.46 30.3C220.464 30.3819 218.542 31.0807 216.96 32.3C215.293 33.8067 214.457 36.5333 214.45 40.48V43.38H222.65C223.711 43.38 224.728 43.8014 225.478 44.5516C226.229 45.3017 226.65 46.3191 226.65 47.38V53.83C226.647 54.8805 226.232 55.8879 225.493 56.6345C224.754 57.381 223.75 57.8069 222.7 57.82Z" fill="#4E271D"/>
<path d="M287.34 83.51H244.84C244.203 83.503 243.573 83.6483 243.004 83.9338C242.434 84.2193 241.941 84.6367 241.566 85.1512C241.19 85.6658 240.943 86.2626 240.844 86.8921C240.746 87.5215 240.799 88.1654 241 88.77C241.828 91.2841 243.284 93.5454 245.23 95.34C248.35 98.1995 252.459 99.7342 256.69 99.62C262.517 99.62 266.85 97.3833 269.69 92.91C270.05 92.3651 270.543 91.9206 271.122 91.618C271.701 91.3154 272.347 91.1647 273 91.18H283.72C284.417 91.1721 285.104 91.3465 285.714 91.6861C286.323 92.0256 286.832 92.5185 287.192 93.1158C287.552 93.7131 287.749 94.3941 287.765 95.0912C287.78 95.7883 287.613 96.4774 287.28 97.09C285.045 101.272 281.914 104.909 278.11 107.74C272.397 112.06 265.397 114.22 257.11 114.22C250.787 114.33 244.545 112.789 239 109.75C233.715 106.821 229.389 102.428 226.54 97.1C223.481 91.2851 221.946 84.7892 222.08 78.22C221.934 71.6183 223.447 65.0856 226.48 59.22C229.276 53.9086 233.566 49.5319 238.82 46.63C244.394 43.7602 250.57 42.2522 256.839 42.2296C263.109 42.207 269.295 43.6704 274.89 46.5C280.05 49.2789 284.291 53.4964 287.1 58.64C290.067 64.1936 291.561 70.4148 291.44 76.71C291.44 77.79 291.44 78.82 291.35 79.81C291.274 80.8198 290.818 81.7631 290.074 82.4498C289.33 83.1365 288.353 83.5154 287.34 83.51ZM268.43 71.67C269.059 71.6733 269.68 71.5283 270.242 71.2467C270.805 70.9651 271.293 70.5548 271.667 70.0492C272.041 69.5436 272.29 68.9569 272.395 68.3367C272.5 67.7166 272.457 67.0805 272.27 66.48C271.462 64.2609 270.082 62.2946 268.27 60.78C264.999 58.0286 260.833 56.5732 256.56 56.69C252.52 56.5862 248.59 58.0152 245.56 60.69C243.83 62.2312 242.464 64.137 241.56 66.27C241.328 66.8769 241.247 67.5313 241.324 68.1765C241.402 68.8217 241.635 69.4384 242.004 69.9731C242.374 70.5078 242.868 70.9445 243.444 71.2454C244.02 71.5463 244.66 71.7023 245.31 71.7L268.43 71.67Z" fill="#4E271D"/>
<path d="M355.1 83.51H312.6C311.964 83.5046 311.335 83.6511 310.767 83.9373C310.199 84.2234 309.707 84.641 309.333 85.1553C308.958 85.6697 308.712 86.2659 308.614 86.8946C308.516 87.5232 308.57 88.1662 308.77 88.77C309.598 91.2841 311.054 93.5454 313 95.34C316.12 98.1995 320.229 99.7342 324.46 99.62C330.293 99.62 334.627 97.3833 337.46 92.91C337.818 92.3695 338.305 91.9277 338.879 91.6253C339.452 91.323 340.092 91.1698 340.74 91.18H351.46C352.156 91.1756 352.84 91.3526 353.447 91.6936C354.053 92.0346 354.56 92.5278 354.917 93.1245C355.274 93.7212 355.47 94.4008 355.485 95.0962C355.499 95.7917 355.332 96.4789 355 97.09C352.765 101.272 349.634 104.909 345.83 107.74C340.117 112.06 333.117 114.22 324.83 114.22C318.524 114.321 312.301 112.781 306.77 109.75C301.482 106.822 297.152 102.43 294.3 97.1C291.236 91.2868 289.701 84.7897 289.84 78.22C289.694 71.6183 291.207 65.0856 294.24 59.22C297.036 53.9086 301.326 49.5319 306.58 46.63C312.154 43.7602 318.33 42.2522 324.599 42.2296C330.869 42.207 337.055 43.6704 342.65 46.5C347.811 49.2816 352.053 53.5027 354.86 58.65C357.827 64.2036 359.321 70.4248 359.2 76.72C359.2 77.8 359.2 78.83 359.11 79.82C359.032 80.828 358.575 81.7689 357.831 82.4535C357.087 83.1381 356.111 83.5156 355.1 83.51ZM336.19 71.67C336.816 71.6686 337.434 71.5201 337.992 71.2365C338.551 70.9529 339.035 70.542 339.406 70.0371C339.776 69.5321 340.023 68.9472 340.126 68.3293C340.23 67.7115 340.186 67.078 340 66.48C339.192 64.2609 337.812 62.2946 336 60.78C332.729 58.0286 328.563 56.5732 324.29 56.69C320.25 56.5862 316.32 58.0152 313.29 60.69C311.564 62.2345 310.199 64.1395 309.29 66.27C309.057 66.8777 308.976 67.533 309.054 68.179C309.132 68.825 309.367 69.4423 309.737 69.9772C310.108 70.5122 310.603 70.9487 311.18 71.2489C311.757 71.5491 312.399 71.704 313.05 71.7L336.19 71.67Z" fill="#4E271D"/>
<path d="M385.38 99.11H406.31C407.371 99.11 408.388 99.5314 409.138 100.282C409.889 101.032 410.31 102.049 410.31 103.11V109.11C410.31 110.171 409.889 111.188 409.138 111.938C408.388 112.689 407.371 113.11 406.31 113.11H367.75C366.689 113.11 365.672 112.689 364.922 111.938C364.171 111.188 363.75 110.171 363.75 109.11V29.23C363.75 28.1691 364.171 27.1517 364.922 26.4016C365.672 25.6514 366.689 25.23 367.75 25.23H377.36C378.421 25.23 379.438 25.6514 380.188 26.4016C380.939 27.1517 381.36 28.1691 381.36 29.23V95.1C381.359 95.6278 381.462 96.1507 381.664 96.6384C381.865 97.1262 382.161 97.5692 382.535 97.942C382.909 98.3147 383.353 98.6099 383.841 98.8103C384.329 99.0108 384.852 99.1126 385.38 99.11Z" fill="#C29663"/>
<path d="M410 59.21C412.561 54.0228 416.528 49.6601 421.45 46.62C426.326 43.67 431.931 42.1457 437.63 42.22C442.374 42.1103 447.07 43.1897 451.29 45.36C452.926 46.2199 454.482 47.2239 455.94 48.36C456.358 48.7106 456.868 48.9352 457.409 49.0075C457.95 49.0798 458.5 48.9969 458.996 48.7684C459.491 48.54 459.912 48.1754 460.208 47.7171C460.505 47.2588 460.665 46.7258 460.67 46.18C460.67 45.4179 460.972 44.6869 461.51 44.1471C462.048 43.6072 462.778 43.3026 463.54 43.3H474.4C475.461 43.3 476.478 43.7214 477.228 44.4716C477.979 45.2217 478.4 46.2391 478.4 47.3V109.02C478.4 110.081 477.979 111.098 477.228 111.848C476.478 112.599 475.461 113.02 474.4 113.02H463.53C462.768 113.017 462.038 112.713 461.5 112.173C460.962 111.633 460.66 110.902 460.66 110.14V110.06C460.663 109.518 460.513 108.987 460.226 108.527C459.939 108.068 459.527 107.699 459.039 107.465C458.551 107.23 458.006 107.139 457.468 107.202C456.93 107.265 456.421 107.479 456 107.82C454.531 109.01 452.95 110.055 451.28 110.94C447.023 113.144 442.283 114.248 437.49 114.15C431.817 114.206 426.247 112.633 421.44 109.62C416.532 106.514 412.574 102.116 410 96.91C407.095 91.0366 405.645 84.5512 405.77 78C405.64 71.4868 407.092 65.0392 410 59.21ZM458.15 67.21C456.586 64.2713 454.23 61.8291 451.35 60.16C448.557 58.5445 445.386 57.6991 442.16 57.71C438.92 57.6776 435.734 58.5352 432.947 60.1892C430.161 61.8432 427.883 64.2301 426.36 67.09C424.564 70.4399 423.671 74.2001 423.77 78C423.684 81.826 424.572 85.6111 426.35 89C427.918 91.9854 430.269 94.4881 433.15 96.24C435.861 97.8922 438.975 98.7642 442.15 98.76C445.378 98.7722 448.55 97.923 451.34 96.3C454.218 94.65 456.574 92.2245 458.14 89.3C459.898 85.906 460.765 82.1209 460.66 78.3C460.779 74.4457 459.912 70.6249 458.14 67.2L458.15 67.21Z" fill="#C29663"/>
<path d="M523 111.58L507.71 92.35C507.195 91.692 506.487 91.2117 505.685 90.9767C504.884 90.7416 504.028 90.7635 503.24 91.0392C502.451 91.315 501.768 91.8308 501.288 92.5143C500.807 93.1977 500.553 94.0145 500.56 94.85V109.08C500.56 110.141 500.139 111.158 499.388 111.908C498.638 112.659 497.621 113.08 496.56 113.08H486.95C485.889 113.08 484.872 112.659 484.122 111.908C483.371 111.158 482.95 110.141 482.95 109.08V23.94C482.95 22.8791 483.371 21.8617 484.122 21.1116C484.872 20.3614 485.889 19.94 486.95 19.94H496.56C497.621 19.94 498.638 20.3614 499.388 21.1116C500.139 21.8617 500.56 22.8791 500.56 23.94V61.4C500.555 62.2346 500.811 63.05 501.292 63.7318C501.774 64.4137 502.456 64.9278 503.244 65.2023C504.033 65.4768 504.887 65.4979 505.688 65.2626C506.489 65.0272 507.196 64.5473 507.71 63.89L522.77 44.89C523.145 44.4159 523.622 44.0329 524.166 43.7697C524.709 43.5064 525.306 43.3698 525.91 43.37H538C538.767 43.3726 539.517 43.5957 540.16 44.0125C540.804 44.4293 541.314 45.0223 541.63 45.721C541.947 46.4196 542.055 47.1944 541.943 47.9531C541.832 48.7117 541.504 49.4222 541 50L518.51 75.68C517.861 76.4119 517.502 77.3565 517.502 78.335C517.502 79.3135 517.861 80.2581 518.51 80.99L541.16 106.41C541.68 106.986 542.021 107.701 542.142 108.468C542.263 109.235 542.158 110.021 541.84 110.729C541.522 111.437 541.004 112.037 540.351 112.457C539.698 112.876 538.936 113.096 538.16 113.09H526.16C525.553 113.094 524.953 112.961 524.406 112.699C523.858 112.438 523.378 112.055 523 111.58Z" fill="#C29663"/>
<path d="M599.67 83.51H557.18C556.543 83.503 555.913 83.6483 555.344 83.9338C554.774 84.2193 554.281 84.6367 553.906 85.1512C553.53 85.6658 553.283 86.2626 553.184 86.8921C553.086 87.5215 553.139 88.1654 553.34 88.77C554.176 91.2805 555.631 93.5401 557.57 95.34C560.684 98.1894 564.78 99.7232 569 99.62C574.84 99.62 579.173 97.3833 582 92.91C582.358 92.368 582.848 91.9253 583.423 91.6229C583.998 91.3205 584.64 91.1681 585.29 91.18H596C596.697 91.1721 597.384 91.3465 597.993 91.6861C598.602 92.0256 599.112 92.5185 599.472 93.1158C599.832 93.7131 600.029 94.3941 600.045 95.0912C600.06 95.7883 599.893 96.4774 599.56 97.09C597.328 101.274 594.196 104.912 590.39 107.74C584.683 112.06 577.683 114.22 569.39 114.22C563.081 114.322 556.854 112.782 551.32 109.75C546.042 106.819 541.723 102.426 538.88 97.1C535.813 91.2877 534.274 84.7906 534.41 78.22C534.267 71.6175 535.784 65.0847 538.82 59.22C541.609 53.9072 545.897 49.5297 551.15 46.63C556.724 43.7602 562.9 42.2522 569.169 42.2296C575.439 42.207 581.625 43.6704 587.22 46.5C592.383 49.2788 596.626 53.5006 599.43 58.65C602.405 64.201 603.903 70.4234 603.78 76.72C603.78 77.8 603.78 78.83 603.68 79.82C603.602 80.828 603.145 81.7689 602.401 82.4535C601.657 83.1381 600.681 83.5156 599.67 83.51ZM580.77 71.67C581.399 71.6733 582.02 71.5283 582.582 71.2467C583.145 70.9651 583.633 70.5548 584.007 70.0492C584.381 69.5436 584.63 68.9569 584.735 68.3367C584.84 67.7166 584.797 67.0805 584.61 66.48C583.797 64.2633 582.418 62.2981 580.61 60.78C577.34 58.0269 573.173 56.5714 568.9 56.69C564.86 56.5862 560.93 58.0152 557.9 60.69C556.168 62.229 554.801 64.1354 553.9 66.27C553.668 66.8769 553.587 67.5313 553.664 68.1765C553.742 68.8217 553.975 69.4384 554.344 69.9731C554.714 70.5078 555.208 70.9445 555.784 71.2454C556.359 71.5463 557 71.7023 557.65 71.7L580.77 71.67Z" fill="#C29663"/>
</svg>
